<svg xmlns="http://www.w3.org/2000/svg" width="160" height="32" viewBox="0 0 160 32">
    <!-- Logo Icon -->
    <g transform="translate(0, 4)">
        <path d="M8 31a1 1 0 0 1-1-1V18c0-.27.108-.527.302-.716l12.281-11.98c2.063-2.011 5.396-1.988 7.431.046a5.25 5.25 0 0 1 1.549 3.771 5.25 5.25 0 0 1-1.594 3.751L8.698 30.716c-.19.185-.442.284-.698.284m17.726 14.993a5.27 5.27 0 0 1-3.739-1.542 5.25 5.25 0 0 1-1.549-3.771 5.25 5.25 0 0 1 1.594-3.752l18.271-17.844c.288-.28.716-.362 1.086-.206.37.157.611.52.611.923v12c0 .27-.108.527-.302.716l-12.281 11.98a5.27 5.27 0 0 1-3.691 1.496M23 33H12a.999.999 0 0 1-.707-1.707l15-15A1 1 0 0 1 27 16h11a.999.999 0 0 1 .707 1.707l-15 15A1 1 0 0 1 23 33" transform="scale(0.48)" fill="#10B981" style="mix-blend-mode:normal"/>
    </g>

    <!-- Text: SaveGate.ai -->
    <text x="30" y="22" font-family="Arial, sans-serif" font-size="18" font-weight="600" fill="#ffffff">
        SaveGate<tspan fill="#10B981">.ai</tspan>
    </text>
</svg>
